#!OML:ASF E:\Mandelcareful walks\Project 1\Capture day 1\Session 1\Subject1.ASF
:FULLY-SPECIFIED
:DEGREES
387
root 5.39945 16.6432 -0.624112 -167.66 -76.1763 172.809
lowerback 12.5664 -1.14446 -3.30006
upperback 4.66237 -2.09865 1.24519
thorax -1.98631 -1.17731 3.4542
lowerneck -18.3537 -12.4971 -15.5837
upperneck 19.7439 -15.7757 10.7579
head 11.6065 -7.22776 3.76443
rclavicle -1.09332e-015 4.17448e-015
rhumerus -20.6181 7.45448 -80.455
rradius 81.2095
rwrist -23.3081
rhand -7.94926 -27.8644
rfingers 7.12502
rthumb 17.9577 -57.0554
lclavicle -1.09332e-015 4.17448e-015
lhumerus -28.6826 -29.1604 96.7952
lradius 60.3905
lwrist 13.0269
lhand -13.013 -12.0533
lfingers 7.12502
lthumb 13.0807 17.5165
rfemur -13.1235 -2.74956 5.00295
rtibia 16.8582
rfoot -5.77158 -12.6777
rtoes -10.8391
lfemur -8.1741 7.99314 -7.69456
ltibia 25.1041
lfoot -15.6183 15.5617
ltoes -11.8121
388
root 5.42552 16.6381 -0.631753 -166.554 -76.2037 171.71
lowerback 13.0003 -1.10042 -3.54444
upperback 4.85641 -2.1004 1.20387
thorax -2.00995 -1.18972 3.5611
lowerneck -18.6219 -12.6269 -15.7997
upperneck 19.7789 -15.8899 10.9023
head 11.7216 -7.2641 3.813
rclavicle 3.19049e-014 -3.12092e-014
rhumerus -20.7621 7.90627 -81.4187
rradius 79.197
rwrist -20.4526
rhand -7.95381 -26.9435
rfingers 7.12502
rthumb 17.9533 -56.1349
lclavicle 3.19049e-014 -3.12092e-014
lhumerus -28.069 -28.2315 96.2069
lradius 61.209
lwrist 14.0186
lhand -13.9223 -12.7582
lfingers 7.12502
lthumb 12.2041 16.8658
rfemur -13.6563 -3.62455 4.79648
rtibia 17.6044
rfoot -5.85098 -11.9336
rtoes -10.9157
lfemur -8.44018 8.19442 -7.94386
ltibia 25.2963
lfoot -15.4559 15.346
ltoes -11.9634
389
root 5.45627 16.6326 -0.65053 -166.369 -76.1536 171.614
lowerback 13.9178 -1.04035 -3.82087
upperback 4.66344 -2.08713 1.28807
thorax -2.6942 -1.16532 3.84375
lowerneck -18.5584 -12.637 -15.9629
upperneck 19.9349 -15.8803 10.8674
head 11.779 -7.27728 3.82936
rclavicle 1.22253e-014 -1.17283e-014
rhumerus -21.3818 8.47895 -82.3423
rradius 77.282
rwrist -17.9517
rhand -7.30948 -26.1262
rfingers 7.12502
rthumb 18.5732 -55.2596
lclavicle 1.22253e-014 -1.17283e-014
lhumerus -28.1343 -26.8427 95.9019
lradius 62.147
lwrist 15.4566
lhand -14.7624 -13.2486
lfingers 7.12502
lthumb 11.3939 16.4218
rfemur -14.3375 -3.82755 4.88885
rtibia 18.4069
rfoot -6.05104 -11.7178
rtoes -10.6611
lfemur -8.8376 8.56261 -7.86903
ltibia 25.6747
lfoot -15.3694 14.9204
ltoes -11.9872
390
root 5.51137 16.6251 -0.671676 -166.692 -76.1242 172.266
lowerback 14.19 -0.915037 -3.87516
upperback 4.7156 -1.94082 1.4191
thorax -2.79261 -1.09531 3.9991
lowerneck -18.04 -12.7117 -16.2915
upperneck 19.5263 -15.9886 11.1041
head 11.5984 -7.34566 3.9647
rclavicle -1.14301e-014 -1.98785e-016
rhumerus -21.4929 8.72069 -83.0256
rradius 75.4137
rwrist -15.9355
rhand -6.28595 -25.7306
rfingers 7.12502
rthumb 19.5575 -54.7669
lclavicle -1.14301e-014 -1.98785e-016
lhumerus -27.5917 -25.7567 95.4553
lradius 62.955
lwrist 17.2461
lhand -15.4235 -13.2559
lfingers 7.12502
lthumb 10.7563 16.4487
rfemur -15.4078 -3.80189 5.24057
rtibia 19.2769
rfoot -6.17532 -11.7468
rtoes -10.8312
lfemur -9.57209 9.05702 -7.58108
ltibia 26.0644
lfoot -15.1442 14.532
ltoes -12.1612
391
root 5.6047 16.6125 -0.698439 -169.152 -76.1538 175.326
lowerback 14.8799 -0.870224 -3.61291
upperback 4.80007 -1.87301 1.70135
thorax -3.08001 -1.06382 4.16127
lowerneck -18.7622 -12.7683 -16.0744
upperneck 19.5966 -16.0108 11.1246
head 11.7454 -7.30335 3.90288
rclavicle -2.33572e-014 -1.0138e-014
rhumerus -21.0372 9.20579 -83.8616
rradius 73.6274
rwrist -14.397
rhand -5.5101 -26.1563
rfingers 7.12502
rthumb 20.3032 -55.1151
lclavicle -2.33572e-014 -1.0138e-014
lhumerus -26.461 -24.4369 94.4774
lradius 63.7814
lwrist 18.9408
lhand -16.2126 -12.9064
lfingers 7.12502
lthumb 9.99507 16.8363
rfemur -16.9273 -3.11515 6.28296
rtibia 20.2508
rfoot -6.28847 -12.4018
rtoes -10.7151
lfemur -10.7633 9.70839 -6.60286
ltibia 26.5021
lfoot -14.6572 14.2114
ltoes -12.3159
392
root 5.63114 16.5984 -0.713726 -167.935 -76.2102 174.107
lowerback 15.2828 -0.875738 -3.81975
upperback 4.93357 -1.9412 1.57558
thorax -3.14583 -1.10368 4.16935
lowerneck -19.1331 -12.731 -15.923
upperneck 19.971 -15.9633 11.0284
head 11.9264 -7.26387 3.83985
rclavicle -1.87852e-014 8.94531e-015
rhumerus -21.114 9.45834 -84.6981
rradius 71.9243
rwrist -12.9635
rhand -5.40073 -26.527
rfingers 7.12502
rthumb 20.4083 -55.4746
lclavicle -1.87852e-014 8.94531e-015
lhumerus -25.9194 -23.2547 93.7345
lradius 64.7113
lwrist 20.814
lhand -17.1309 -12.5386
lfingers 7.12502
lthumb 9.10905 17.2447
rfemur -17.5564 -4.18264 6.10784
rtibia 21.2847
rfoot -6.6003 -11.4152
rtoes -10.4107
lfemur -11.0521 10.1224 -6.83355
ltibia 26.8775
lfoot -14.7464 13.6084
ltoes -12.4776
393
root 5.67079 16.579 -0.733278 -166.688 -76.3016 172.819
lowerback 16.1288 -0.783713 -4.06283
upperback 4.87572 -1.89797 1.50815
thorax -3.65748 -1.06992 4.26247
lowerneck -18.8296 -12.6763 -16.1871
upperneck 20.1554 -15.936 11.1921
head 11.9777 -7.26679 3.96026
rclavicle -3.61788e-014 -7.95139e-015
rhumerus -21.4724 9.4308 -85.2704
rradius 70.3141
rwrist -11.6865
rhand -5.45546 -26.8645
rfingers 7.12502
rthumb 20.3557 -55.8176
lclavicle -3.61788e-014 -7.95139e-015
lhumerus -25.5711 -22.2962 93.2857
lradius 65.5116
lwrist 22.712
lhand -18.0661 -12.2707
lfingers 7.12502
lthumb 8.20649 17.55
rfemur -18.215 -4.90728 5.9265
rtibia 22.3326
rfoot -6.9298 -10.7619
rtoes -9.71899
lfemur -11.3518 10.3678 -7.03525
ltibia 27.1765
lfoot -14.7098 13.1749
ltoes -12.5125
394
root 5.70879 16.5607 -0.752028 -164.87 -76.4208 170.823
lowerback 15.7999 -0.658375 -4.10101
upperback 5.7725 -1.78732 1.21423
thorax -2.55405 -1.08521 3.91995
lowerneck -19.4848 -12.8455 -16.1306
upperneck 19.9808 -16.1717 11.6488
head 12.1145 -7.28495 4.0414
rclavicle -2.99171e-014 -1.39149e-015
rhumerus -20.4259 8.87675 -85.6242
rradius 68.6937
rwrist -11.0268
rhand -5.26742 -27.2295
rfingers 7.12502
rthumb 20.5365 -56.1633
lclavicle -2.99171e-014 -1.39149e-015
lhumerus -23.542 -21.9194 92.1239
lradius 65.9773
lwrist 24.2874
lhand -19.2261 -12.1194
lfingers 7.12502
lthumb 7.08693 17.7419
rfemur -18.7469 -5.73835 5.57189
rtibia 23.4023
rfoot -7.2046 -10.0544
rtoes -9.45827
lfemur -11.5241 10.4811 -7.40319
ltibia 27.3993
lfoot -14.4824 12.9077
ltoes -12.5989
395
root 5.73362 16.5453 -0.767889 -162.69 -76.497 168.464
lowerback 17.0741 -0.609934 -4.40079
upperback 5.32062 -1.82037 1.09015
thorax -3.69989 -1.05516 4.02032
lowerneck -19.3528 -12.4981 -16.1252
upperneck 20.9848 -15.7079 11.1298
head 12.3507 -7.14299 3.95987
rclavicle 4.77083e-015 4.96962e-015
rhumerus -21.5684 8.90048 -85.9265
rradius 67.1604
rwrist -10.618
rhand -5.11988 -26.5831
rfingers 7.12502
rthumb 20.6782 -55.5015
lclavicle 4.77083e-015 4.96962e-015
lhumerus -23.9109 -20.9977 92.0363
lradius 66.6077
lwrist 25.5668
lhand -20.5218 -11.9581
lfingers 7.12502
lthumb 5.83606 17.9415
rfemur -19.221 -6.98358 5.11588
rtibia 24.5015
rfoot -7.53773 -9.0247
rtoes -9.72079
lfemur -11.6652 10.641 -7.89529
ltibia 27.6765
lfoot -14.2684 12.5638
ltoes -12.6449
396
root 5.7987 16.5261 -0.796359 -162.683 -76.7266 168.756
lowerback 17.326 -0.539451 -4.08933
upperback 5.48725 -1.70135 1.04074
thorax -3.68008 -1.00551 3.77251
lowerneck -20.5687 -12.3945 -15.6285
upperneck 22.4044 -15.512 10.4642
head 13.0015 -7.03768 3.63271
rclavicle -4.96962e-015 -6.75868e-015
rhumerus -21.3846 8.36987 -86.1982
rradius 65.5254
rwrist -10.1197
rhand -5.08198 -25.5847
rfingers 7.12502
rthumb 20.7146 -54.4991
lclavicle -4.96962e-015 -6.75868e-015
lhumerus -22.7164 -20.6295 91.1593
lradius 67.0167
lwrist 26.9182
lhand -21.9047 -11.874
lfingers 7.12502
lthumb 4.50075 18.0582
rfemur -20.3316 -7.30495 5.47389
rtibia 25.6291
rfoot -7.88358 -8.98801
rtoes -9.7045
lfemur -12.5395 10.9056 -7.61847
ltibia 28.0026
lfoot -13.8118 12.2028
ltoes -12.7368
397
root 5.84994 16.5031 -0.831973 -161.749 -77.0022 167.999
lowerback 17.4336 -0.496843 -4.04109
upperback 5.78415 -1.66359 0.977201
thorax -3.42846 -1.00796 3.66735
lowerneck -20.5766 -11.8422 -15.2692
upperneck 22.2672 -14.7679 10.3426
head 12.7912 -6.69929 3.69689
rclavicle 8.05078e-015 -1.03368e-014
rhumerus -21.2255 7.92156 -86.3938
rradius 64.4345
rwrist -10.0802
rhand -5.20767 -25.1204
rfingers 7.12502
rthumb 20.5939 -54.048
lclavicle 8.05078e-015 -1.03368e-014
lhumerus -21.3431 -20.1736 90.2915
lradius 67.3305
lwrist 28.0478
lhand -23.2953 -11.9485
lfingers 7.12502
lthumb 3.1579 18.0079
rfemur -21.2692 -7.77139 5.57345
rtibia 26.7749
rfoot -8.2485 -8.83673
rtoes -9.23721
lfemur -13.2755 11.1002 -7.55916
ltibia 28.3393
lfoot -13.5946 11.7247
ltoes -12.8682
